#!OML:ASF X:\für Bonn\!DataBase\2005_08_10_Bjorn_Final\c3d\bjorn.ASF
:FULLY-SPECIFIED
:DEGREES
126
root 1.36375 19.1108 3.35565 -213.548 -34.9388 -160.165
lowerback 25.7546 -4.41274 -2.50057
upperback 21.5347 -11.9004 0.665182
thorax 10.636 -8.76161 3.33665
lowerneck -1.46034 -5.35083 -1.55365
upperneck 7.01148 -10.9626 22.5739
head 3.70052 -5.54301 6.7131
rclavicle 6.67916e-014 -7.95139e-015
rhumerus -34.4057 -6.71595 -78.2366
rradius 31.4858
rwrist 15.2561
rhand -7.10621 10.8963
rfingers 7.12502
rthumb 18.7687 -18.2183
lclavicle 6.67916e-014 -7.95139e-015
lhumerus 52.8852 -20.4635 82.7592
lradius 118.784
lwrist 0.11802
lhand -45.3705 -23.7398
lfingers 7.12502
lthumb -18.1401 5.43431
rfemur -77.3718 -6.04827 17.6329
rtibia 123.861
rfoot 3.7963 16.4025
rtoes -21.8646
lfemur 11.8 -15.2548 -8.78821
ltibia 26.9457
lfoot -11.2259 -5.84091
ltoes -6.22826
127
root 1.33836 19.1634 3.35922 -212.878 -34.6524 -160.522
lowerback 25.0287 -4.59221 -2.38693
upperback 21.2731 -11.9606 0.690212
thorax 10.6446 -8.70678 3.25332
lowerneck -1.50114 -5.31521 -1.5703
upperneck 7.22658 -10.8341 22.0551
head 3.72382 -5.44966 6.55484
rclavicle 2.06736e-014 4.77083e-015
rhumerus -34.5214 -6.67122 -78.1692
rradius 31.6748
rwrist 14.9655
rhand -7.08211 10.7583
rfingers 7.12502
rthumb 18.7919 -18.354
lclavicle 2.06736e-014 4.77083e-015
lhumerus 51.1842 -20.1999 83.0086
lradius 118.562
lwrist -0.524021
lhand -45.4714 -23.8099
lfingers 7.12502
lthumb -18.2373 5.3552
rfemur -75.6971 -5.78931 17.7881
rtibia 122.738
rfoot 3.21351 15.3184
rtoes -22.7791
lfemur 12.08 -14.942 -8.91554
ltibia 25.7552
lfoot -10.6938 -5.64104
ltoes -6.14936
128
root 1.31306 19.212 3.35925 -212.174 -34.4052 -160.88
lowerback 24.311 -4.78824 -2.25299
upperback 20.6284 -12.0121 0.626079
thorax 10.9928 -8.65659 3.15185
lowerneck -1.59886 -5.27124 -1.47562
upperneck 7.52449 -10.7164 21.47
head 3.77537 -5.3544 6.35386
rclavicle 5.08889e-014 4.45278e-014
rhumerus -34.6312 -6.80393 -78.112
rradius 31.8378
rwrist 14.8292
rhand -7.03996 10.6793
rfingers 7.12502
rthumb 18.8324 -18.429
lclavicle 5.08889e-014 4.45278e-014
lhumerus 49.3854 -19.9603 83.189
lradius 118.174
lwrist -1.13973
lhand -45.4707 -23.9864
lfingers 7.12502
lthumb -18.2365 5.17875
rfemur -73.9575 -5.62493 17.9184
rtibia 121.517
rfoot 2.73441 14.1874
rtoes -23.6039
lfemur 12.3364 -14.6028 -9.02213
ltibia 24.5165
lfoot -10.1253 -5.54048
ltoes -5.56921
129
root 1.28816 19.2577 3.35823 -211.438 -34.1778 -161.244
lowerback 23.4811 -4.99605 -2.11392
upperback 20.3575 -12.0909 0.623389
thorax 11.0113 -8.59361 2.99888
lowerneck -1.6801 -5.20205 -1.36242
upperneck 7.80062 -10.5628 20.8955
head 3.81419 -5.24674 6.15706
rclavicle -9.22361e-014 1.82882e-013
rhumerus -34.7009 -7.09119 -78.012
rradius 31.9311
rwrist 14.8833
rhand -6.89544 10.6355
rfingers 7.12502
rthumb 18.9714 -18.4593
lclavicle -9.22361e-014 1.82882e-013
lhumerus 47.4232 -19.6793 83.3204
lradius 117.727
lwrist -1.77039
lhand -45.299 -24.0574
lfingers 7.12502
lthumb -18.0713 5.12307
rfemur -72.1727 -5.49534 18.042
rtibia 120.196
rfoot 2.31177 13.0417
rtoes -24.4211
lfemur 12.5517 -14.2121 -9.11441
ltibia 23.2688
lfoot -9.53829 -5.50878
ltoes -5.21482
130
root 1.26258 19.3034 3.35547 -210.649 -33.976 -161.621
lowerback 22.5838 -5.20567 -1.98785
upperback 20.0749 -12.1709 0.631112
thorax 11.06 -8.53027 2.85196
lowerneck -1.73692 -5.12616 -1.2341
upperneck 8.05668 -10.389 20.296
head 3.83975 -5.13288 5.95294
rclavicle -8.5875e-014 4.77083e-014
rhumerus -34.8199 -7.33189 -77.9332
rradius 32.1329
rwrist 14.9056
rhand -6.76027 10.5685
rfingers 7.12502
rthumb 19.1014 -18.5135
lclavicle -8.5875e-014 4.77083e-014
lhumerus 45.3211 -19.392 83.4099
lradius 117.259
lwrist -2.28849
lhand -44.9863 -24.2138
lfingers 7.12502
lthumb -17.7705 4.99417
rfemur -70.4085 -5.43739 18.1276
rtibia 118.798
rfoot 1.98426 11.9395
rtoes -25.0431
lfemur 12.7072 -13.8133 -9.2153
ltibia 22.023
lfoot -8.96059 -5.48434
ltoes -4.79483
131
root 1.23718 19.3474 3.35066 -209.816 -33.8024 -162.009
lowerback 21.6636 -5.43768 -1.88017
upperback 19.7466 -12.2659 0.634811
thorax 11.0718 -8.46802 2.71412
lowerneck -1.64725 -5.01624 -1.13613
upperneck 8.25422 -10.1519 19.7118
head 3.81851 -5.00305 5.76913
rclavicle -1.33583e-013 4.92986e-014
rhumerus -34.9709 -7.53412 -77.878
rradius 32.3415
rwrist 14.9085
rhand -6.6013 10.4565
rfingers 7.12502
rthumb 19.2542 -18.6103
lclavicle -1.33583e-013 4.92986e-014
lhumerus 43.0871 -19.0896 83.4486
lradius 116.672
lwrist -2.8588
lhand -44.5975 -24.2006
lfingers 7.12502
lthumb -17.3963 5.04088
rfemur -68.6565 -5.47243 18.1888
rtibia 117.331
rfoot 1.79352 10.9022
rtoes -25.3379
lfemur 12.8152 -13.3704 -9.30332
ltibia 20.7802
lfoot -8.36526 -5.53849
ltoes -4.36701
